<svg xmlns="http://www.w3.org/2000/svg" version="1.1" xmlns:xlink="http://www.w3.org/1999/xlink"
     xmlns:svgjs="http://svgjs.dev/svgjs" width="200" height="200" viewBox="0 0 2000 1500">
    <rect width="2000" height="1500" fill="#ffffff"></rect>
    <g transform="matrix(0.75,0,0,0.75,249.090909090909,330.266437065637)">
        <svg viewBox="0 0 396 222" data-background-color="#e9efe7" preserveAspectRatio="xMidYMid meet" height="1121"
             width="2000" xmlns="http://www.w3.org/2000/svg" xmlns:xlink="http://www.w3.org/1999/xlink">
            <g id="tight-bounds" transform="matrix(1,0,0,1,0.24000000000003752,-0.1693714285714094)">
                <svg viewBox="0 0 395.5199999999999 222.33874285714282" height="222.33874285714282"
                     width="395.5199999999999">
                    <g>
                        <svg viewBox="0 0 395.5199999999999 222.33874285714282" height="222.33874285714282"
                             width="395.5199999999999">
                            <g>
                                <svg viewBox="0 0 395.5199999999999 222.33874285714282" height="222.33874285714282"
                                     width="395.5199999999999">
                                    <g id="textblocktransform">
                                        <svg viewBox="0 0 395.5199999999999 222.33874285714282"
                                             height="222.33874285714282" width="395.5199999999999" id="textblock">
                                            <g>
                                                <svg viewBox="0 0 395.5199999999999 222.33874285714282"
                                                     height="222.33874285714282" width="395.5199999999999">
                                                    <g transform="matrix(1,0,0,1,0,0)">
                                                        <svg width="395.5199999999999" viewBox="1.51 -36.82 68.36 38.43"
                                                             height="222.33874285714282" data-palette-color="#2a2c35">
                                                            <path d="M23.05-28.86L23.05-28.86Q23.05-25.49 21.39-22.73 19.73-19.97 16.94-18.12L16.94-18.12Q18.41-17.82 19.48-17.11 20.56-16.41 21.26-15.38 21.97-14.36 22.34-13.06 22.71-11.77 22.71-10.35L22.71-10.35Q22.71-7.57 21.41-5.49 20.12-3.42 18.07-2.08 16.02-0.73 13.5-0.07 10.99 0.59 8.5 0.59L8.5 0.59Q7.13 0.59 5.76 0.39 4.39 0.2 3.17-0.29L3.17-0.29Q2.73-0.44 2.44-1.49 2.15-2.54 1.98-4.05 1.81-5.57 1.71-7.32 1.61-9.08 1.56-10.69 1.51-12.3 1.51-13.53 1.51-14.75 1.51-15.23L1.51-15.23Q1.51-16.94 1.51-18.68 1.51-20.41 1.61-22.12L1.61-22.12Q1.61-22.56 1.64-23.49 1.66-24.41 1.68-25.56 1.71-26.71 1.78-27.98 1.86-29.25 1.98-30.35 2.1-31.45 2.32-32.23 2.54-33.01 2.83-33.2L2.83-33.2Q3.96-33.94 5.32-34.59 6.69-35.25 8.15-35.74 9.62-36.23 11.08-36.52 12.55-36.82 13.87-36.82L13.87-36.82Q15.67-36.82 17.36-36.3 19.04-35.79 20.29-34.77 21.53-33.74 22.29-32.25 23.05-30.76 23.05-28.86ZM14.94-26.27L14.94-26.27Q14.94-27.1 14.43-27.49 13.92-27.88 13.09-27.88L13.09-27.88Q12.4-27.88 11.65-27.59 10.89-27.29 10.35-26.81L10.35-26.81Q10.21-26.66 10.08-25.98 9.96-25.29 9.89-24.44 9.81-23.58 9.79-22.83 9.77-22.07 9.77-21.83L9.77-21.83Q9.77-21.73 9.77-21.51 9.77-21.29 9.79-21.04 9.81-20.8 9.86-20.61 9.91-20.41 10.01-20.41L10.01-20.41Q10.84-20.41 11.72-21.02 12.6-21.63 13.31-22.53 14.01-23.44 14.48-24.46 14.94-25.49 14.94-26.27ZM14.75-12.16L14.75-12.16Q14.75-12.99 14.16-13.33 13.57-13.67 12.84-13.67L12.84-13.67Q12.16-13.67 11.4-13.35 10.64-13.04 10.16-12.6L10.16-12.6Q10.01-12.5 9.94-12.11 9.86-11.72 9.84-11.25 9.81-10.79 9.79-10.38 9.77-9.96 9.77-9.81L9.77-9.81Q9.77-9.72 9.77-9.42 9.77-9.13 9.79-8.81 9.81-8.5 9.89-8.23 9.96-7.96 10.06-7.96L10.06-7.96Q10.74-7.96 11.57-8.35 12.4-8.74 13.11-9.33 13.82-9.91 14.28-10.67 14.75-11.43 14.75-12.16ZM36.42 1.61L36.42 1.61Q33.44 1.61 31.25 0.12 29.05-1.37 27.61-3.88 26.17-6.4 25.46-9.72 24.75-13.04 24.75-16.7L24.75-16.7Q24.75-20.12 25.51-23.63 26.27-27.15 27.83-29.98 29.39-32.81 31.78-34.62 34.18-36.43 37.5-36.43L37.5-36.43Q40.72-36.43 42.89-34.69 45.07-32.96 46.36-30.2 47.65-27.44 48.22-24.02 48.78-20.61 48.78-17.19L48.78-17.19Q48.78-13.38 48.02-9.99 47.26-6.59 45.73-4 44.19-1.42 41.87 0.1 39.55 1.61 36.42 1.61ZM37.01-25.63L37.01-25.63Q36.08-25.63 35.42-24.9 34.76-24.17 34.32-22.97 33.88-21.78 33.69-20.29 33.49-18.8 33.49-17.29L33.49-17.29Q33.49-15.58 33.71-13.87 33.93-12.16 34.37-10.79 34.81-9.42 35.47-8.59 36.13-7.76 37.06-7.76L37.06-7.76Q38.13-7.76 38.77-8.84 39.4-9.91 39.77-11.43 40.13-12.94 40.26-14.55 40.38-16.16 40.38-17.24L40.38-17.24Q40.38-18.55 40.21-20.02 40.04-21.48 39.65-22.73 39.26-23.97 38.62-24.8 37.99-25.63 37.01-25.63ZM69.87-18.16L69.87-18.16 69.87-16.94Q69.82-15.14 69.67-13.09 69.53-11.04 69.18-9.03 68.84-7.03 68.16-5.2 67.48-3.37 66.3-1.95 65.13-0.54 63.42 0.29 61.71 1.12 59.27 1.12L59.27 1.12Q56.64 1.12 54.66 0 52.68-1.12 51.36-2.95 50.04-4.79 49.41-7.06 48.77-9.33 48.77-11.67L48.77-11.67Q48.77-12.7 48.99-13.96 49.21-15.23 49.75-16.33 50.29-17.43 51.14-18.19 52-18.95 53.32-18.95L53.32-18.95Q54.73-18.95 55.44-18.16 56.15-17.38 56.46-16.24 56.78-15.09 56.88-13.75 56.98-12.4 57.12-11.25 57.27-10.11 57.64-9.33 58-8.54 58.88-8.54L58.88-8.54Q59.91-8.54 60.49-9.42 61.08-10.3 61.35-11.5 61.62-12.7 61.69-13.92 61.76-15.14 61.76-15.82L61.76-15.82Q61.76-18.55 61.3-21.17 60.83-23.78 60.15-26.46L60.15-26.46Q59.81-27.83 59.42-29.25 59.03-30.66 59.03-32.08L59.03-32.08Q59.03-33.74 59.91-34.79 60.79-35.84 62.5-35.84L62.5-35.84Q63.76-35.84 64.5-35.33 65.23-34.81 65.96-33.84L65.96-33.84Q67.08-32.32 67.84-30.37 68.6-28.42 69.04-26.32 69.48-24.22 69.67-22.09 69.87-19.97 69.87-18.16Z"
                                                                  opacity="1" transform="matrix(1,0,0,1,0,0)"
                                                                  fill="#000000" class="wordmark-text-0"
                                                                  data-fill-palette-color="primary" id="text-0"></path>
                                                        </svg>
                                                    </g>
                                                </svg>
                                            </g>
                                        </svg>
                                    </g>
                                </svg>
                            </g>
                            <g></g>
                        </svg>
                    </g>
                    <defs></defs>
                </svg>
                <rect width="395.5199999999999" height="222.33874285714282" fill="none" stroke="none"
                      visibility="hidden"></rect>
            </g>
        </svg>
    </g>
</svg>
